<svg width="134" height="22" viewBox="0 0 134 22" fill="none" xmlns="http://www.w3.org/2000/svg">
<path d="M12.3447 2.4325L14.1024 5.9525C14.3421 6.4425 14.9813 6.9125 15.5205 7.0025L18.7064 7.5325C20.7437 7.8725 21.2231 9.3525 19.755 10.8125L17.2782 13.2925C16.8588 13.7125 16.6291 14.5225 16.7589 15.1025L17.468 18.1725C18.0273 20.6025 16.739 21.5425 14.5918 20.2725L11.6057 18.5025C11.0664 18.1825 10.1775 18.1825 9.62826 18.5025L6.64217 20.2725C4.50497 21.5425 3.20666 20.5925 3.76593 18.1725L4.475 15.1025C4.60483 14.5225 4.37514 13.7125 3.95568 13.2925L1.47893 10.8125C0.0208347 9.3525 0.490221 7.8725 2.52755 7.5325L5.71338 7.0025C6.24269 6.9125 6.88185 6.4425 7.12154 5.9525L8.87924 2.4325C9.83799 0.5225 11.3959 0.5225 12.3447 2.4325Z" fill="#171A13"/>
<path d="M40.3081 2.4325L42.0658 5.9525C42.3055 6.4425 42.9446 6.9125 43.4839 7.0025L46.6698 7.5325C48.7071 7.8725 49.1865 9.3525 47.7184 10.8125L45.2416 13.2925C44.8222 13.7125 44.5925 14.5225 44.7223 15.1025L45.4314 18.1725C45.9906 20.6025 44.7023 21.5425 42.5551 20.2725L39.569 18.5025C39.0298 18.1825 38.1409 18.1825 37.5916 18.5025L34.6055 20.2725C32.4683 21.5425 31.17 20.5925 31.7293 18.1725L32.4384 15.1025C32.5682 14.5225 32.3385 13.7125 31.9191 13.2925L29.4423 10.8125C27.9842 9.3525 28.4536 7.8725 30.4909 7.5325L33.6768 7.0025C34.2061 6.9125 34.8452 6.4425 35.0849 5.9525L36.8426 2.4325C37.8014 0.5225 39.3593 0.5225 40.3081 2.4325Z" fill="#171A13"/>
<path d="M68.2715 2.4325L70.0292 5.9525C70.2688 6.4425 70.908 6.9125 71.4473 7.0025L74.6331 7.5325C76.6705 7.8725 77.1498 9.3525 75.6818 10.8125L73.205 13.2925C72.7856 13.7125 72.5559 14.5225 72.6857 15.1025L73.3948 18.1725C73.954 20.6025 72.6657 21.5425 70.5185 20.2725L67.5324 18.5025C66.9931 18.1825 66.1043 18.1825 65.555 18.5025L62.5689 20.2725C60.4317 21.5425 59.1334 20.5925 59.6927 18.1725L60.4018 15.1025C60.5316 14.5225 60.3019 13.7125 59.8824 13.2925L57.4057 10.8125C55.9476 9.3525 56.417 7.8725 58.4543 7.5325L61.6401 7.0025C62.1694 6.9125 62.8086 6.4425 63.0483 5.9525L64.806 2.4325C65.7647 0.5225 67.3227 0.5225 68.2715 2.4325Z" fill="#171A13"/>
<path d="M96.2348 2.4325L97.9925 5.9525C98.2322 6.4425 98.8714 6.9125 99.4107 7.0025L102.597 7.5325C104.634 7.8725 105.113 9.3525 103.645 10.8125L101.168 13.2925C100.749 13.7125 100.519 14.5225 100.649 15.1025L101.358 18.1725C101.917 20.6025 100.629 21.5425 98.4819 20.2725L95.4958 18.5025C94.9565 18.1825 94.0677 18.1825 93.5184 18.5025L90.5323 20.2725C88.3951 21.5425 87.0968 20.5925 87.6561 18.1725L88.3651 15.1025C88.495 14.5225 88.2653 13.7125 87.8458 13.2925L85.3691 10.8125C83.911 9.3525 84.3804 7.8725 86.4177 7.5325L89.6035 7.0025C90.1328 6.9125 90.772 6.4425 91.0117 5.9525L92.7694 2.4325C93.7281 0.5225 95.2861 0.5225 96.2348 2.4325Z" fill="#171A13"/>
<path d="M124.198 2.4325L125.956 5.9525C126.196 6.4425 126.835 6.9125 127.374 7.0025L130.56 7.5325C132.597 7.8725 133.077 9.3525 131.609 10.8125L129.132 13.2925C128.712 13.7125 128.483 14.5225 128.612 15.1025L129.322 18.1725C129.881 20.6025 128.592 21.5425 126.445 20.2725L123.459 18.5025C122.92 18.1825 122.031 18.1825 121.482 18.5025L118.496 20.2725C116.358 21.5425 115.06 20.5925 115.619 18.1725L116.329 15.1025C116.458 14.5225 116.229 13.7125 115.809 13.2925L113.332 10.8125C111.874 9.3525 112.344 7.8725 114.381 7.5325L117.567 7.0025C118.096 6.9125 118.735 6.4425 118.975 5.9525L120.733 2.4325C121.692 0.5225 123.249 0.5225 124.198 2.4325Z" stroke="#171A13" stroke-width="2" stroke-linecap="round" stroke-linejoin="round"/>
</svg>
